<svg width="24" height="24" viewBox="0 0 24 24" fill="none" xmlns="http://www.w3.org/2000/svg">
<path d="M12.4046 22C11.8432 22.0016 11.3046 21.7784 10.909 21.3801L2.61989 13.0917C2.1825 12.6557 1.95827 12.0498 2.00643 11.434L2.53527 4.4881C2.61081 3.44259 3.44427 2.61215 4.48988 2.54057L11.4347 2.01164C11.4897 2 11.5436 2 11.5986 2C12.1588 1.99933 12.6961 2.2225 13.091 2.61991L21.3801 10.9072C21.777 11.304 22 11.8423 22 12.4036C22 12.9648 21.777 13.5031 21.3801 13.8999L13.9001 21.3801C13.5044 21.7782 12.9659 22.0014 12.4046 22ZM7.91679 5.79985C6.9594 5.80013 6.12154 6.44349 5.87397 7.36848C5.6264 8.29347 6.03085 9.26945 6.86007 9.74806C7.68929 10.2267 8.73654 10.0886 9.41342 9.4114L9.42083 9.40505L9.42823 9.39765L9.41977 9.40505C10.021 8.79843 10.1985 7.88972 9.86988 7.10135C9.54122 6.31298 8.77081 5.79959 7.91679 5.79985Z" fill="white"/>
</svg>
